<svg width="262" height="293" viewBox="0 0 262 293" fill="none" xmlns="http://www.w3.org/2000/svg">
<path fill-rule="evenodd" clip-rule="evenodd" d="M86.2512 103.299C105.131 120.701 157.698 120.502 176.578 103.299C177.175 102.802 177.87 102.404 178.566 102.901C179.261 103.299 179.46 104.194 178.963 104.89C174.194 112.348 167.039 118.115 159.189 121.993C150.643 126.17 141.004 128.258 131.465 128.258C121.925 128.258 112.286 126.17 103.74 121.993C95.7907 118.115 88.7355 112.348 83.9657 104.89C83.3695 104.194 83.5682 103.199 84.1644 102.802C84.86 102.404 85.7544 102.603 86.2512 103.299ZM77.3079 105.188C77.4073 105.984 78.2022 106.481 78.9972 106.382C79.6928 106.282 80.289 105.487 80.1896 104.791C79.9909 103.498 80.3884 102.205 81.2827 101.31C82.177 100.415 83.4688 100.017 84.7607 100.216C85.5556 100.316 86.2512 99.8186 86.4499 99.0231C86.4499 98.1281 85.9531 97.4321 85.1581 97.3326C82.972 96.9349 80.7859 97.7304 79.1959 99.222C77.7054 100.813 76.9104 103.001 77.3079 105.188ZM181.845 104.791C181.746 105.586 182.243 106.282 183.037 106.481C183.832 106.58 184.528 106.083 184.727 105.288C185.025 103.1 184.329 100.912 182.739 99.3214C181.149 97.7304 178.963 97.0343 176.777 97.3326C175.982 97.4321 175.485 98.2276 175.585 99.0231C175.684 99.8186 176.479 100.316 177.274 100.216C178.566 100.017 179.858 100.415 180.752 101.31C181.547 102.205 182.044 103.498 181.845 104.791Z" fill="url(#paint0_linear_0_1126)"/>
<path d="M24.44 198.384C22.7333 198.384 21.144 198.075 19.672 197.456C18.2213 196.837 16.952 195.973 15.864 194.864C14.776 193.755 13.9227 192.453 13.304 190.96C12.7067 189.467 12.408 187.835 12.408 186.064C12.408 184.293 12.7067 182.661 13.304 181.168C13.9013 179.653 14.744 178.352 15.832 177.264C16.92 176.155 18.1893 175.301 19.64 174.704C21.112 174.085 22.712 173.776 24.44 173.776C26.168 173.776 27.7147 174.064 29.08 174.64C30.4667 175.216 31.64 175.984 32.6 176.944C33.56 177.904 34.2427 178.971 34.648 180.144L30.264 182.256C29.8587 181.104 29.144 180.155 28.12 179.408C27.1173 178.64 25.8907 178.256 24.44 178.256C23.032 178.256 21.7947 178.587 20.728 179.248C19.6613 179.909 18.8293 180.827 18.232 182C17.656 183.152 17.368 184.507 17.368 186.064C17.368 187.621 17.656 188.987 18.232 190.16C18.8293 191.333 19.6613 192.251 20.728 192.912C21.7947 193.573 23.032 193.904 24.44 193.904C25.8907 193.904 27.1173 193.531 28.12 192.784C29.144 192.016 29.8587 191.056 30.264 189.904L34.648 192.016C34.2427 193.189 33.56 194.256 32.6 195.216C31.64 196.176 30.4667 196.944 29.08 197.52C27.7147 198.096 26.168 198.384 24.44 198.384ZM44.8783 198.384C43.1503 198.384 41.5716 197.989 40.1423 197.2C38.7343 196.411 37.6036 195.333 36.7503 193.968C35.9183 192.581 35.5023 191.013 35.5023 189.264C35.5023 187.493 35.9183 185.925 36.7503 184.56C37.6036 183.195 38.7343 182.117 40.1423 181.328C41.5716 180.539 43.1503 180.144 44.8783 180.144C46.6063 180.144 48.1743 180.539 49.5823 181.328C50.9903 182.117 52.1103 183.195 52.9423 184.56C53.7956 185.925 54.2223 187.493 54.2223 189.264C54.2223 191.013 53.7956 192.581 52.9423 193.968C52.1103 195.333 50.9903 196.411 49.5823 197.2C48.1743 197.989 46.6063 198.384 44.8783 198.384ZM44.8783 194.064C45.7529 194.064 46.5103 193.861 47.1503 193.456C47.8116 193.051 48.3236 192.485 48.6863 191.76C49.0703 191.035 49.2623 190.203 49.2623 189.264C49.2623 188.325 49.0703 187.504 48.6863 186.8C48.3236 186.075 47.8116 185.509 47.1503 185.104C46.5103 184.677 45.7529 184.464 44.8783 184.464C44.0036 184.464 43.2356 184.677 42.5743 185.104C41.9129 185.509 41.3903 186.075 41.0063 186.8C40.6436 187.504 40.4623 188.325 40.4623 189.264C40.4623 190.203 40.6436 191.035 41.0063 191.76C41.3903 192.485 41.9129 193.051 42.5743 193.456C43.2356 193.861 44.0036 194.064 44.8783 194.064ZM56.09 198V180.528H60.57V183.984L60.314 183.216C60.7193 182.171 61.37 181.403 62.266 180.912C63.1833 180.4 64.25 180.144 65.466 180.144C66.7887 180.144 67.9407 180.421 68.922 180.976C69.9247 181.531 70.7033 182.309 71.258 183.312C71.8127 184.293 72.09 185.445 72.09 186.768V198H67.29V187.792C67.29 187.109 67.1513 186.523 66.874 186.032C66.618 185.541 66.2447 185.157 65.754 184.88C65.2847 184.603 64.73 184.464 64.09 184.464C63.4713 184.464 62.9167 184.603 62.426 184.88C61.9353 185.157 61.5513 185.541 61.274 186.032C61.018 186.523 60.89 187.109 60.89 187.792V198H56.09ZM82.8622 205.04C81.5182 205.04 80.2702 204.816 79.1182 204.368C77.9662 203.92 76.9742 203.291 76.1422 202.48C75.3316 201.691 74.7449 200.752 74.3822 199.664L78.8302 198.096C79.0649 198.907 79.5449 199.547 80.2702 200.016C80.9956 200.485 81.8596 200.72 82.8622 200.72C83.6516 200.72 84.3342 200.571 84.9102 200.272C85.4862 199.995 85.9236 199.579 86.2222 199.024C86.5422 198.469 86.7022 197.819 86.7022 197.072V193.072L87.6302 194.224C87.0329 195.205 86.2649 195.941 85.3262 196.432C84.3876 196.901 83.2889 197.136 82.0302 197.136C80.4089 197.136 78.9582 196.773 77.6782 196.048C76.3982 195.301 75.3956 194.288 74.6702 193.008C73.9449 191.707 73.5822 190.235 73.5822 188.592C73.5822 186.949 73.9449 185.499 74.6702 184.24C75.3956 182.96 76.3876 181.957 77.6462 181.232C78.9049 180.507 80.3342 180.144 81.9342 180.144C83.1929 180.144 84.2916 180.4 85.2302 180.912C86.1689 181.403 86.9689 182.16 87.6302 183.184L87.0222 184.336V180.528H91.5023V197.072C91.5023 198.608 91.1289 199.973 90.3822 201.168C89.6356 202.384 88.6116 203.333 87.3102 204.016C86.0302 204.699 84.5476 205.04 82.8622 205.04ZM82.7022 192.784C83.5129 192.784 84.2169 192.613 84.8142 192.272C85.4116 191.931 85.8702 191.451 86.1902 190.832C86.5316 190.213 86.7022 189.488 86.7022 188.656C86.7022 187.824 86.5316 187.099 86.1902 186.48C85.8489 185.84 85.3796 185.349 84.7822 185.008C84.1849 184.645 83.4916 184.464 82.7022 184.464C81.8916 184.464 81.1662 184.645 80.5262 185.008C79.9076 185.349 79.4169 185.84 79.0542 186.48C78.7129 187.099 78.5422 187.824 78.5422 188.656C78.5422 189.467 78.7129 190.181 79.0542 190.8C79.4169 191.419 79.9076 191.909 80.5262 192.272C81.1662 192.613 81.8916 192.784 82.7022 192.784ZM94.0763 198V180.528H98.5563V184.72L98.2363 184.112C98.6203 182.64 99.2496 181.648 100.124 181.136C101.02 180.603 102.076 180.336 103.292 180.336H104.316V184.496H102.812C101.639 184.496 100.69 184.859 99.9643 185.584C99.2389 186.288 98.8763 187.291 98.8763 188.592V198H94.0763ZM110.868 198.384C109.609 198.384 108.521 198.181 107.604 197.776C106.687 197.371 105.983 196.795 105.492 196.048C105.001 195.28 104.756 194.373 104.756 193.328C104.756 192.347 104.98 191.483 105.428 190.736C105.876 189.968 106.559 189.328 107.476 188.816C108.415 188.304 109.577 187.941 110.964 187.728L116.308 186.864V190.384L111.828 191.184C111.145 191.312 110.623 191.536 110.26 191.856C109.897 192.155 109.716 192.592 109.716 193.168C109.716 193.701 109.919 194.117 110.324 194.416C110.729 194.715 111.231 194.864 111.828 194.864C112.617 194.864 113.311 194.693 113.908 194.352C114.505 194.011 114.964 193.552 115.284 192.976C115.625 192.379 115.796 191.728 115.796 191.024V186.48C115.796 185.819 115.529 185.264 114.996 184.816C114.484 184.368 113.78 184.144 112.884 184.144C112.031 184.144 111.273 184.379 110.612 184.848C109.972 185.317 109.503 185.936 109.204 186.704L105.364 184.88C105.705 183.899 106.249 183.056 106.996 182.352C107.743 181.648 108.639 181.104 109.684 180.72C110.729 180.336 111.871 180.144 113.108 180.144C114.58 180.144 115.881 180.411 117.012 180.944C118.143 181.477 119.017 182.224 119.636 183.184C120.276 184.123 120.596 185.221 120.596 186.48V198H116.116V195.184L117.204 194.992C116.692 195.76 116.127 196.4 115.508 196.912C114.889 197.403 114.196 197.765 113.428 198C112.66 198.256 111.807 198.384 110.868 198.384ZM131.26 198.192C129.148 198.192 127.505 197.627 126.332 196.496C125.18 195.344 124.604 193.744 124.604 191.696V184.688H121.66V180.528H121.82C122.716 180.528 123.398 180.304 123.868 179.856C124.358 179.408 124.604 178.736 124.604 177.84V176.56H129.404V180.528H133.5V184.688H129.404V191.376C129.404 191.973 129.51 192.475 129.724 192.88C129.937 193.264 130.268 193.552 130.716 193.744C131.164 193.936 131.718 194.032 132.38 194.032C132.529 194.032 132.7 194.021 132.892 194C133.084 193.979 133.286 193.957 133.5 193.936V198C133.18 198.043 132.817 198.085 132.412 198.128C132.006 198.171 131.622 198.192 131.26 198.192ZM141.624 198.384C140.216 198.384 139.011 198.085 138.008 197.488C137.027 196.869 136.28 196.016 135.768 194.928C135.256 193.84 135 192.571 135 191.12V180.528H139.8V190.736C139.8 191.397 139.928 191.984 140.184 192.496C140.462 192.987 140.846 193.371 141.336 193.648C141.827 193.925 142.382 194.064 143 194.064C143.64 194.064 144.195 193.925 144.664 193.648C145.155 193.371 145.528 192.987 145.784 192.496C146.062 191.984 146.2 191.397 146.2 190.736V180.528H151V198H146.52V194.544L146.776 195.312C146.371 196.357 145.71 197.136 144.792 197.648C143.896 198.139 142.84 198.384 141.624 198.384ZM153.549 198V173.776H158.349V198H153.549ZM166.309 198.384C165.051 198.384 163.963 198.181 163.045 197.776C162.128 197.371 161.424 196.795 160.933 196.048C160.443 195.28 160.197 194.373 160.197 193.328C160.197 192.347 160.421 191.483 160.869 190.736C161.317 189.968 162 189.328 162.917 188.816C163.856 188.304 165.019 187.941 166.405 187.728L171.749 186.864V190.384L167.269 191.184C166.587 191.312 166.064 191.536 165.701 191.856C165.339 192.155 165.157 192.592 165.157 193.168C165.157 193.701 165.36 194.117 165.765 194.416C166.171 194.715 166.672 194.864 167.269 194.864C168.059 194.864 168.752 194.693 169.349 194.352C169.947 194.011 170.405 193.552 170.725 192.976C171.067 192.379 171.237 191.728 171.237 191.024V186.48C171.237 185.819 170.971 185.264 170.437 184.816C169.925 184.368 169.221 184.144 168.325 184.144C167.472 184.144 166.715 184.379 166.053 184.848C165.413 185.317 164.944 185.936 164.645 186.704L160.805 184.88C161.147 183.899 161.691 183.056 162.437 182.352C163.184 181.648 164.08 181.104 165.125 180.72C166.171 180.336 167.312 180.144 168.549 180.144C170.021 180.144 171.323 180.411 172.453 180.944C173.584 181.477 174.459 182.224 175.077 183.184C175.717 184.123 176.037 185.221 176.037 186.48V198H171.557V195.184L172.645 194.992C172.133 195.76 171.568 196.4 170.949 196.912C170.331 197.403 169.637 197.765 168.869 198C168.101 198.256 167.248 198.384 166.309 198.384ZM186.701 198.192C184.589 198.192 182.946 197.627 181.773 196.496C180.621 195.344 180.045 193.744 180.045 191.696V184.688H177.101V180.528H177.261C178.157 180.528 178.84 180.304 179.309 179.856C179.8 179.408 180.045 178.736 180.045 177.84V176.56H184.845V180.528H188.941V184.688H184.845V191.376C184.845 191.973 184.952 192.475 185.165 192.88C185.378 193.264 185.709 193.552 186.157 193.744C186.605 193.936 187.16 194.032 187.821 194.032C187.97 194.032 188.141 194.021 188.333 194C188.525 193.979 188.728 193.957 188.941 193.936V198C188.621 198.043 188.258 198.085 187.853 198.128C187.448 198.171 187.064 198.192 186.701 198.192ZM190.794 198V180.528H195.594V198H190.794ZM190.794 178.96V174.16H195.594V178.96H190.794ZM206.818 198.384C205.09 198.384 203.512 197.989 202.082 197.2C200.674 196.411 199.544 195.333 198.69 193.968C197.858 192.581 197.442 191.013 197.442 189.264C197.442 187.493 197.858 185.925 198.69 184.56C199.544 183.195 200.674 182.117 202.082 181.328C203.512 180.539 205.09 180.144 206.818 180.144C208.546 180.144 210.114 180.539 211.522 181.328C212.93 182.117 214.05 183.195 214.882 184.56C215.736 185.925 216.162 187.493 216.162 189.264C216.162 191.013 215.736 192.581 214.882 193.968C214.05 195.333 212.93 196.411 211.522 197.2C210.114 197.989 208.546 198.384 206.818 198.384ZM206.818 194.064C207.693 194.064 208.45 193.861 209.09 193.456C209.752 193.051 210.264 192.485 210.626 191.76C211.01 191.035 211.202 190.203 211.202 189.264C211.202 188.325 211.01 187.504 210.626 186.8C210.264 186.075 209.752 185.509 209.09 185.104C208.45 184.677 207.693 184.464 206.818 184.464C205.944 184.464 205.176 184.677 204.514 185.104C203.853 185.509 203.33 186.075 202.946 186.8C202.584 187.504 202.402 188.325 202.402 189.264C202.402 190.203 202.584 191.035 202.946 191.76C203.33 192.485 203.853 193.051 204.514 193.456C205.176 193.861 205.944 194.064 206.818 194.064ZM218.03 198V180.528H222.51V183.984L222.254 183.216C222.659 182.171 223.31 181.403 224.206 180.912C225.123 180.4 226.19 180.144 227.406 180.144C228.729 180.144 229.881 180.421 230.862 180.976C231.865 181.531 232.643 182.309 233.198 183.312C233.753 184.293 234.03 185.445 234.03 186.768V198H229.23V187.792C229.23 187.109 229.091 186.523 228.814 186.032C228.558 185.541 228.185 185.157 227.694 184.88C227.225 184.603 226.67 184.464 226.03 184.464C225.411 184.464 224.857 184.603 224.366 184.88C223.875 185.157 223.491 185.541 223.214 186.032C222.958 186.523 222.83 187.109 222.83 187.792V198H218.03ZM243.074 198.384C241.154 198.384 239.48 197.936 238.05 197.04C236.642 196.123 235.682 194.896 235.17 193.36L238.69 191.696C239.138 192.635 239.746 193.371 240.514 193.904C241.282 194.437 242.136 194.704 243.074 194.704C243.757 194.704 244.28 194.565 244.642 194.288C245.005 194.011 245.186 193.627 245.186 193.136C245.186 192.88 245.122 192.667 244.994 192.496C244.866 192.304 244.674 192.133 244.418 191.984C244.162 191.835 243.842 191.707 243.458 191.6L240.482 190.768C239.053 190.363 237.954 189.712 237.186 188.816C236.418 187.899 236.034 186.821 236.034 185.584C236.034 184.496 236.312 183.547 236.866 182.736C237.421 181.925 238.2 181.296 239.202 180.848C240.205 180.379 241.357 180.144 242.658 180.144C244.365 180.144 245.858 180.549 247.138 181.36C248.44 182.149 249.357 183.269 249.89 184.72L246.338 186.384C246.082 185.659 245.613 185.083 244.93 184.656C244.269 184.208 243.512 183.984 242.658 183.984C242.04 183.984 241.549 184.112 241.186 184.368C240.845 184.624 240.674 184.976 240.674 185.424C240.674 185.659 240.738 185.872 240.866 186.064C240.994 186.256 241.197 186.427 241.474 186.576C241.773 186.725 242.136 186.864 242.562 186.992L245.346 187.824C246.797 188.251 247.906 188.901 248.674 189.776C249.442 190.629 249.826 191.685 249.826 192.944C249.826 194.032 249.538 194.981 248.962 195.792C248.408 196.603 247.629 197.243 246.626 197.712C245.624 198.16 244.44 198.384 243.074 198.384Z" fill="#101010"/>
<path d="M8.59269 255V247.08L2.56869 237.12H6.28869L10.8967 244.896H9.57669L14.1607 237.12H17.8807L11.8807 247.056V255H8.59269ZM23.7933 255.288C22.5133 255.288 21.3453 254.992 20.2893 254.4C19.2493 253.808 18.4173 253 17.7933 251.976C17.1853 250.952 16.8813 249.784 16.8813 248.472C16.8813 247.16 17.1853 245.992 17.7933 244.968C18.4173 243.944 19.2493 243.136 20.2893 242.544C21.3293 241.952 22.4973 241.656 23.7933 241.656C25.0733 241.656 26.2333 241.952 27.2733 242.544C28.3133 243.136 29.1373 243.944 29.7453 244.968C30.3693 245.976 30.6813 247.144 30.6813 248.472C30.6813 249.784 30.3693 250.952 29.7453 251.976C29.1213 253 28.2893 253.808 27.2493 254.4C26.2093 254.992 25.0573 255.288 23.7933 255.288ZM23.7933 252.408C24.4973 252.408 25.1133 252.24 25.6413 251.904C26.1853 251.568 26.6093 251.104 26.9133 250.512C27.2333 249.904 27.3933 249.224 27.3933 248.472C27.3933 247.704 27.2333 247.032 26.9133 246.456C26.6093 245.864 26.1853 245.4 25.6413 245.064C25.1133 244.712 24.4973 244.536 23.7933 244.536C23.0733 244.536 22.4413 244.712 21.8973 245.064C21.3533 245.4 20.9213 245.864 20.6013 246.456C20.2973 247.032 20.1453 247.704 20.1453 248.472C20.1453 249.224 20.2973 249.904 20.6013 250.512C20.9213 251.104 21.3533 251.568 21.8973 251.904C22.4413 252.24 23.0733 252.408 23.7933 252.408ZM37.7216 255.288C36.7136 255.288 35.8336 255.064 35.0816 254.616C34.3456 254.168 33.7776 253.544 33.3776 252.744C32.9936 251.944 32.8016 251.008 32.8016 249.936V241.944H35.9456V249.672C35.9456 250.216 36.0496 250.696 36.2576 251.112C36.4816 251.512 36.7936 251.832 37.1936 252.072C37.6096 252.296 38.0736 252.408 38.5856 252.408C39.0976 252.408 39.5536 252.296 39.9536 252.072C40.3536 251.832 40.6656 251.504 40.8896 251.088C41.1136 250.672 41.2256 250.176 41.2256 249.6V241.944H44.3696V255H41.3936V252.432L41.6576 252.888C41.3536 253.688 40.8496 254.288 40.1456 254.688C39.4576 255.088 38.6496 255.288 37.7216 255.288ZM47.2921 255V241.944H50.2441V244.848L50.0041 244.416C50.3081 243.44 50.7801 242.76 51.4201 242.376C52.0761 241.992 52.8601 241.8 53.7721 241.8H54.5401V244.584H53.4121C52.5161 244.584 51.7961 244.864 51.2521 245.424C50.7081 245.968 50.4361 246.736 50.4361 247.728V255H47.2921ZM59.3343 255L65.5023 237.12H69.7263L75.8943 255H72.3423L71.0703 251.16H64.1583L62.8623 255H59.3343ZM65.0943 248.28H70.1343L67.1583 239.376H68.0703L65.0943 248.28ZM83.4395 255.288C82.1435 255.288 80.9755 254.992 79.9355 254.4C78.9115 253.792 78.1035 252.976 77.5115 251.952C76.9195 250.912 76.6235 249.744 76.6235 248.448C76.6235 247.152 76.9195 245.992 77.5115 244.968C78.1035 243.944 78.9115 243.136 79.9355 242.544C80.9755 241.952 82.1435 241.656 83.4395 241.656C84.3675 241.656 85.2315 241.824 86.0315 242.16C86.8315 242.48 87.5195 242.928 88.0955 243.504C88.6875 244.064 89.1115 244.736 89.3675 245.52L86.6075 246.72C86.3675 246.064 85.9595 245.536 85.3835 245.136C84.8235 244.736 84.1755 244.536 83.4395 244.536C82.7515 244.536 82.1355 244.704 81.5915 245.04C81.0635 245.376 80.6475 245.84 80.3435 246.432C80.0395 247.024 79.8875 247.704 79.8875 248.472C79.8875 249.24 80.0395 249.92 80.3435 250.512C80.6475 251.104 81.0635 251.568 81.5915 251.904C82.1355 252.24 82.7515 252.408 83.4395 252.408C84.1915 252.408 84.8475 252.208 85.4075 251.808C85.9675 251.408 86.3675 250.872 86.6075 250.2L89.3675 251.448C89.1115 252.184 88.6955 252.848 88.1195 253.44C87.5435 254.016 86.8555 254.472 86.0555 254.808C85.2555 255.128 84.3835 255.288 83.4395 255.288ZM98.0411 255.288C96.7451 255.288 95.5771 254.992 94.5371 254.4C93.5131 253.792 92.7051 252.976 92.1131 251.952C91.5211 250.912 91.2251 249.744 91.2251 248.448C91.2251 247.152 91.5211 245.992 92.1131 244.968C92.7051 243.944 93.5131 243.136 94.5371 242.544C95.5771 241.952 96.7451 241.656 98.0411 241.656C98.9691 241.656 99.8331 241.824 100.633 242.16C101.433 242.48 102.121 242.928 102.697 243.504C103.289 244.064 103.713 244.736 103.969 245.52L101.209 246.72C100.969 246.064 100.561 245.536 99.9851 245.136C99.4251 244.736 98.7771 244.536 98.0411 244.536C97.3531 244.536 96.7371 244.704 96.1931 245.04C95.6651 245.376 95.2491 245.84 94.9451 246.432C94.6411 247.024 94.4891 247.704 94.4891 248.472C94.4891 249.24 94.6411 249.92 94.9451 250.512C95.2491 251.104 95.6651 251.568 96.1931 251.904C96.7371 252.24 97.3531 252.408 98.0411 252.408C98.7931 252.408 99.4491 252.208 100.009 251.808C100.569 251.408 100.969 250.872 101.209 250.2L103.969 251.448C103.713 252.184 103.297 252.848 102.721 253.44C102.145 254.016 101.457 254.472 100.657 254.808C99.8571 255.128 98.9851 255.288 98.0411 255.288ZM112.739 255.288C111.459 255.288 110.291 254.992 109.235 254.4C108.195 253.808 107.363 253 106.739 251.976C106.131 250.952 105.827 249.784 105.827 248.472C105.827 247.16 106.131 245.992 106.739 244.968C107.363 243.944 108.195 243.136 109.235 242.544C110.275 241.952 111.443 241.656 112.739 241.656C114.019 241.656 115.179 241.952 116.219 242.544C117.259 243.136 118.083 243.944 118.691 244.968C119.315 245.976 119.627 247.144 119.627 248.472C119.627 249.784 119.315 250.952 118.691 251.976C118.067 253 117.235 253.808 116.195 254.4C115.155 254.992 114.003 255.288 112.739 255.288ZM112.739 252.408C113.443 252.408 114.059 252.24 114.587 251.904C115.131 251.568 115.555 251.104 115.859 250.512C116.179 249.904 116.339 249.224 116.339 248.472C116.339 247.704 116.179 247.032 115.859 246.456C115.555 245.864 115.131 245.4 114.587 245.064C114.059 244.712 113.443 244.536 112.739 244.536C112.019 244.536 111.387 244.712 110.843 245.064C110.299 245.4 109.867 245.864 109.547 246.456C109.243 247.032 109.091 247.704 109.091 248.472C109.091 249.224 109.243 249.904 109.547 250.512C109.867 251.104 110.299 251.568 110.843 251.904C111.387 252.24 112.019 252.408 112.739 252.408ZM126.667 255.288C125.659 255.288 124.779 255.064 124.027 254.616C123.291 254.168 122.723 253.544 122.323 252.744C121.939 251.944 121.747 251.008 121.747 249.936V241.944H124.891V249.672C124.891 250.216 124.995 250.696 125.203 251.112C125.427 251.512 125.739 251.832 126.139 252.072C126.555 252.296 127.019 252.408 127.531 252.408C128.043 252.408 128.499 252.296 128.899 252.072C129.299 251.832 129.611 251.504 129.835 251.088C130.059 250.672 130.171 250.176 130.171 249.6V241.944H133.315V255H130.339V252.432L130.603 252.888C130.299 253.688 129.795 254.288 129.091 254.688C128.403 255.088 127.595 255.288 126.667 255.288ZM136.237 255V241.944H139.189V244.512L138.949 244.056C139.253 243.272 139.749 242.68 140.437 242.28C141.141 241.864 141.957 241.656 142.885 241.656C143.845 241.656 144.693 241.864 145.429 242.28C146.181 242.696 146.765 243.28 147.181 244.032C147.597 244.768 147.805 245.624 147.805 246.6V255H144.661V247.344C144.661 246.768 144.549 246.272 144.325 245.856C144.101 245.44 143.789 245.12 143.389 244.896C143.005 244.656 142.549 244.536 142.021 244.536C141.509 244.536 141.053 244.656 140.653 244.896C140.253 245.12 139.941 245.44 139.717 245.856C139.493 246.272 139.381 246.768 139.381 247.344V255H136.237ZM156.416 255.144C154.944 255.144 153.8 254.744 152.984 253.944C152.184 253.128 151.784 251.984 151.784 250.512V244.752H149.528V241.944H149.768C150.408 241.944 150.904 241.776 151.256 241.44C151.608 241.104 151.784 240.616 151.784 239.976V238.968H154.928V241.944H157.928V244.752H154.928V250.344C154.928 250.776 155 251.144 155.144 251.448C155.304 251.752 155.544 251.984 155.864 252.144C156.2 252.304 156.624 252.384 157.136 252.384C157.248 252.384 157.376 252.376 157.52 252.36C157.68 252.344 157.832 252.328 157.976 252.312V255C157.752 255.032 157.496 255.064 157.208 255.096C156.92 255.128 156.656 255.144 156.416 255.144ZM173.308 255.288C172.028 255.288 170.844 255.056 169.756 254.592C168.684 254.128 167.74 253.48 166.924 252.648C166.124 251.816 165.5 250.84 165.052 249.72C164.604 248.6 164.38 247.376 164.38 246.048C164.38 244.72 164.596 243.496 165.028 242.376C165.476 241.24 166.1 240.264 166.9 239.448C167.716 238.616 168.668 237.976 169.756 237.528C170.844 237.064 172.028 236.832 173.308 236.832C174.588 236.832 175.732 237.048 176.74 237.48C177.764 237.912 178.628 238.488 179.332 239.208C180.036 239.912 180.54 240.688 180.844 241.536L177.916 242.904C177.58 242.008 177.012 241.272 176.212 240.696C175.412 240.104 174.444 239.808 173.308 239.808C172.188 239.808 171.196 240.072 170.332 240.6C169.484 241.128 168.82 241.856 168.34 242.784C167.876 243.712 167.644 244.8 167.644 246.048C167.644 247.296 167.876 248.392 168.34 249.336C168.82 250.264 169.484 250.992 170.332 251.52C171.196 252.048 172.188 252.312 173.308 252.312C174.444 252.312 175.412 252.024 176.212 251.448C177.012 250.856 177.58 250.112 177.916 249.216L180.844 250.584C180.54 251.432 180.036 252.216 179.332 252.936C178.628 253.64 177.764 254.208 176.74 254.64C175.732 255.072 174.588 255.288 173.308 255.288ZM183.23 255V241.944H186.182V244.848L185.942 244.416C186.246 243.44 186.718 242.76 187.358 242.376C188.014 241.992 188.798 241.8 189.71 241.8H190.478V244.584H189.35C188.454 244.584 187.734 244.864 187.19 245.424C186.646 245.968 186.374 246.736 186.374 247.728V255H183.23ZM198.398 255.288C197.054 255.288 195.878 254.984 194.87 254.376C193.862 253.768 193.078 252.944 192.518 251.904C191.958 250.864 191.678 249.712 191.678 248.448C191.678 247.136 191.958 245.976 192.518 244.968C193.094 243.944 193.87 243.136 194.846 242.544C195.838 241.952 196.942 241.656 198.158 241.656C199.182 241.656 200.078 241.824 200.846 242.16C201.63 242.496 202.294 242.96 202.838 243.552C203.382 244.144 203.798 244.824 204.086 245.592C204.374 246.344 204.518 247.16 204.518 248.04C204.518 248.264 204.502 248.496 204.47 248.736C204.454 248.976 204.414 249.184 204.35 249.36H194.27V246.96H202.574L201.086 248.088C201.23 247.352 201.19 246.696 200.966 246.12C200.758 245.544 200.406 245.088 199.91 244.752C199.43 244.416 198.846 244.248 198.158 244.248C197.502 244.248 196.918 244.416 196.406 244.752C195.894 245.072 195.502 245.552 195.23 246.192C194.974 246.816 194.878 247.576 194.942 248.472C194.878 249.272 194.982 249.984 195.254 250.608C195.542 251.216 195.958 251.688 196.502 252.024C197.062 252.36 197.702 252.528 198.422 252.528C199.142 252.528 199.75 252.376 200.246 252.072C200.758 251.768 201.158 251.36 201.446 250.848L203.99 252.096C203.734 252.72 203.334 253.272 202.79 253.752C202.246 254.232 201.598 254.608 200.846 254.88C200.11 255.152 199.294 255.288 198.398 255.288ZM210.815 255.288C209.903 255.288 209.111 255.136 208.439 254.832C207.767 254.528 207.247 254.096 206.879 253.536C206.511 252.96 206.327 252.296 206.327 251.544C206.327 250.824 206.487 250.184 206.807 249.624C207.127 249.048 207.623 248.568 208.295 248.184C208.967 247.8 209.815 247.528 210.839 247.368L215.111 246.672V249.072L211.439 249.696C210.815 249.808 210.351 250.008 210.047 250.296C209.743 250.584 209.591 250.96 209.591 251.424C209.591 251.872 209.759 252.232 210.095 252.504C210.447 252.76 210.879 252.888 211.391 252.888C212.047 252.888 212.623 252.752 213.119 252.48C213.631 252.192 214.023 251.8 214.295 251.304C214.583 250.808 214.727 250.264 214.727 249.672V246.312C214.727 245.752 214.503 245.288 214.055 244.92C213.623 244.536 213.047 244.344 212.327 244.344C211.655 244.344 211.055 244.528 210.527 244.896C210.015 245.248 209.639 245.72 209.399 246.312L206.831 245.064C207.087 244.376 207.487 243.784 208.031 243.288C208.591 242.776 209.247 242.376 209.999 242.088C210.751 241.8 211.567 241.656 212.447 241.656C213.519 241.656 214.463 241.856 215.279 242.256C216.095 242.64 216.727 243.184 217.175 243.888C217.639 244.576 217.871 245.384 217.871 246.312V255H214.895V252.768L215.567 252.72C215.231 253.28 214.831 253.752 214.367 254.136C213.903 254.504 213.375 254.792 212.783 255C212.191 255.192 211.535 255.288 210.815 255.288ZM226.494 255.144C225.022 255.144 223.878 254.744 223.062 253.944C222.262 253.128 221.862 251.984 221.862 250.512V244.752H219.606V241.944H219.846C220.486 241.944 220.982 241.776 221.334 241.44C221.686 241.104 221.862 240.616 221.862 239.976V238.968H225.006V241.944H228.006V244.752H225.006V250.344C225.006 250.776 225.078 251.144 225.222 251.448C225.382 251.752 225.622 251.984 225.942 252.144C226.278 252.304 226.702 252.384 227.214 252.384C227.326 252.384 227.454 252.376 227.598 252.36C227.758 252.344 227.91 252.328 228.054 252.312V255C227.83 255.032 227.574 255.064 227.286 255.096C226.998 255.128 226.734 255.144 226.494 255.144ZM236.531 255.288C235.187 255.288 234.011 254.984 233.003 254.376C231.995 253.768 231.211 252.944 230.651 251.904C230.091 250.864 229.811 249.712 229.811 248.448C229.811 247.136 230.091 245.976 230.651 244.968C231.227 243.944 232.003 243.136 232.979 242.544C233.971 241.952 235.075 241.656 236.291 241.656C237.315 241.656 238.211 241.824 238.979 242.16C239.763 242.496 240.427 242.96 240.971 243.552C241.515 244.144 241.931 244.824 242.219 245.592C242.507 246.344 242.651 247.16 242.651 248.04C242.651 248.264 242.635 248.496 242.603 248.736C242.587 248.976 242.547 249.184 242.483 249.36H232.403V246.96H240.707L239.219 248.088C239.363 247.352 239.323 246.696 239.099 246.12C238.891 245.544 238.539 245.088 238.043 244.752C237.563 244.416 236.979 244.248 236.291 244.248C235.635 244.248 235.051 244.416 234.539 244.752C234.027 245.072 233.635 245.552 233.363 246.192C233.107 246.816 233.011 247.576 233.075 248.472C233.011 249.272 233.115 249.984 233.387 250.608C233.675 251.216 234.091 251.688 234.635 252.024C235.195 252.36 235.835 252.528 236.555 252.528C237.275 252.528 237.883 252.376 238.379 252.072C238.891 251.768 239.291 251.36 239.579 250.848L242.123 252.096C241.867 252.72 241.467 253.272 240.923 253.752C240.379 254.232 239.731 254.608 238.979 254.88C238.243 255.152 237.427 255.288 236.531 255.288ZM251.106 255.288C249.842 255.288 248.714 254.992 247.722 254.4C246.73 253.792 245.946 252.968 245.37 251.928C244.794 250.888 244.506 249.736 244.506 248.472C244.506 247.192 244.794 246.04 245.37 245.016C245.946 243.992 246.73 243.176 247.722 242.568C248.73 241.96 249.85 241.656 251.082 241.656C252.074 241.656 252.954 241.856 253.722 242.256C254.506 242.64 255.122 243.184 255.57 243.888L255.09 244.536V236.832H258.234V255H255.258V252.48L255.594 253.104C255.146 253.808 254.522 254.352 253.722 254.736C252.922 255.104 252.05 255.288 251.106 255.288ZM251.442 252.408C252.162 252.408 252.794 252.24 253.338 251.904C253.882 251.568 254.306 251.104 254.61 250.512C254.93 249.92 255.09 249.24 255.09 248.472C255.09 247.72 254.93 247.048 254.61 246.456C254.306 245.848 253.882 245.376 253.338 245.04C252.794 244.704 252.162 244.536 251.442 244.536C250.738 244.536 250.106 244.712 249.546 245.064C248.986 245.4 248.546 245.864 248.226 246.456C247.922 247.032 247.77 247.704 247.77 248.472C247.77 249.24 247.922 249.92 248.226 250.512C248.546 251.104 248.986 251.568 249.546 251.904C250.106 252.24 250.738 252.408 251.442 252.408ZM71.0495 287.288C69.9135 287.288 68.8575 287.08 67.8815 286.664C66.9215 286.248 66.0895 285.672 65.3855 284.936C64.6975 284.184 64.1935 283.312 63.8735 282.32L66.5855 281.144C67.0175 282.168 67.6415 282.976 68.4575 283.568C69.2735 284.144 70.1935 284.432 71.2175 284.432C71.7935 284.432 72.2895 284.344 72.7055 284.168C73.1375 283.976 73.4655 283.72 73.6895 283.4C73.9295 283.08 74.0495 282.696 74.0495 282.248C74.0495 281.72 73.8895 281.288 73.5695 280.952C73.2655 280.6 72.8015 280.328 72.1775 280.136L68.7455 279.032C67.3535 278.6 66.3055 277.952 65.6015 277.088C64.8975 276.224 64.5455 275.208 64.5455 274.04C64.5455 273.016 64.7935 272.112 65.2895 271.328C65.8015 270.544 66.5055 269.936 67.4015 269.504C68.3135 269.056 69.3535 268.832 70.5215 268.832C71.5935 268.832 72.5775 269.024 73.4735 269.408C74.3695 269.776 75.1375 270.296 75.7775 270.968C76.4335 271.624 76.9215 272.4 77.2415 273.296L74.5535 274.496C74.2015 273.6 73.6735 272.912 72.9695 272.432C72.2655 271.936 71.4495 271.688 70.5215 271.688C69.9775 271.688 69.4975 271.784 69.0815 271.976C68.6655 272.152 68.3375 272.408 68.0975 272.744C67.8735 273.064 67.7615 273.448 67.7615 273.896C67.7615 274.392 67.9215 274.832 68.2415 275.216C68.5615 275.584 69.0495 275.872 69.7055 276.08L72.9935 277.112C74.4175 277.576 75.4815 278.216 76.1855 279.032C76.9055 279.848 77.2655 280.856 77.2655 282.056C77.2655 283.08 77.0015 283.984 76.4735 284.768C75.9455 285.552 75.2175 286.168 74.2895 286.616C73.3615 287.064 72.2815 287.288 71.0495 287.288ZM84.5966 287.288C83.5886 287.288 82.7086 287.064 81.9566 286.616C81.2206 286.168 80.6526 285.544 80.2526 284.744C79.8686 283.944 79.6766 283.008 79.6766 281.936V273.944H82.8206V281.672C82.8206 282.216 82.9246 282.696 83.1326 283.112C83.3566 283.512 83.6686 283.832 84.0686 284.072C84.4846 284.296 84.9486 284.408 85.4606 284.408C85.9726 284.408 86.4286 284.296 86.8286 284.072C87.2286 283.832 87.5406 283.504 87.7646 283.088C87.9886 282.672 88.1006 282.176 88.1006 281.6V273.944H91.2446V287H88.2686V284.432L88.5326 284.888C88.2286 285.688 87.7246 286.288 87.0206 286.688C86.3326 287.088 85.5246 287.288 84.5966 287.288ZM100.455 287.288C99.1591 287.288 97.9911 286.992 96.9511 286.4C95.9271 285.792 95.1191 284.976 94.5271 283.952C93.9351 282.912 93.6391 281.744 93.6391 280.448C93.6391 279.152 93.9351 277.992 94.5271 276.968C95.1191 275.944 95.9271 275.136 96.9511 274.544C97.9911 273.952 99.1591 273.656 100.455 273.656C101.383 273.656 102.247 273.824 103.047 274.16C103.847 274.48 104.535 274.928 105.111 275.504C105.703 276.064 106.127 276.736 106.383 277.52L103.623 278.72C103.383 278.064 102.975 277.536 102.399 277.136C101.839 276.736 101.191 276.536 100.455 276.536C99.7671 276.536 99.1511 276.704 98.6071 277.04C98.0791 277.376 97.6631 277.84 97.3591 278.432C97.0551 279.024 96.9031 279.704 96.9031 280.472C96.9031 281.24 97.0551 281.92 97.3591 282.512C97.6631 283.104 98.0791 283.568 98.6071 283.904C99.1511 284.24 99.7671 284.408 100.455 284.408C101.207 284.408 101.863 284.208 102.423 283.808C102.983 283.408 103.383 282.872 103.623 282.2L106.383 283.448C106.127 284.184 105.711 284.848 105.135 285.44C104.559 286.016 103.871 286.472 103.071 286.808C102.271 287.128 101.399 287.288 100.455 287.288ZM115.057 287.288C113.761 287.288 112.593 286.992 111.553 286.4C110.529 285.792 109.721 284.976 109.129 283.952C108.537 282.912 108.241 281.744 108.241 280.448C108.241 279.152 108.537 277.992 109.129 276.968C109.721 275.944 110.529 275.136 111.553 274.544C112.593 273.952 113.761 273.656 115.057 273.656C115.985 273.656 116.849 273.824 117.649 274.16C118.449 274.48 119.137 274.928 119.713 275.504C120.305 276.064 120.729 276.736 120.985 277.52L118.225 278.72C117.985 278.064 117.577 277.536 117.001 277.136C116.441 276.736 115.793 276.536 115.057 276.536C114.369 276.536 113.753 276.704 113.209 277.04C112.681 277.376 112.265 277.84 111.961 278.432C111.657 279.024 111.505 279.704 111.505 280.472C111.505 281.24 111.657 281.92 111.961 282.512C112.265 283.104 112.681 283.568 113.209 283.904C113.753 284.24 114.369 284.408 115.057 284.408C115.809 284.408 116.465 284.208 117.025 283.808C117.585 283.408 117.985 282.872 118.225 282.2L120.985 283.448C120.729 284.184 120.313 284.848 119.737 285.44C119.161 286.016 118.473 286.472 117.673 286.808C116.873 287.128 116.001 287.288 115.057 287.288ZM129.562 287.288C128.218 287.288 127.042 286.984 126.034 286.376C125.026 285.768 124.242 284.944 123.682 283.904C123.122 282.864 122.842 281.712 122.842 280.448C122.842 279.136 123.122 277.976 123.682 276.968C124.258 275.944 125.034 275.136 126.01 274.544C127.002 273.952 128.106 273.656 129.322 273.656C130.346 273.656 131.242 273.824 132.01 274.16C132.794 274.496 133.458 274.96 134.002 275.552C134.546 276.144 134.962 276.824 135.25 277.592C135.538 278.344 135.682 279.16 135.682 280.04C135.682 280.264 135.666 280.496 135.634 280.736C135.618 280.976 135.578 281.184 135.514 281.36H125.434V278.96H133.738L132.25 280.088C132.394 279.352 132.354 278.696 132.13 278.12C131.922 277.544 131.57 277.088 131.074 276.752C130.594 276.416 130.01 276.248 129.322 276.248C128.666 276.248 128.082 276.416 127.57 276.752C127.058 277.072 126.666 277.552 126.394 278.192C126.138 278.816 126.042 279.576 126.106 280.472C126.042 281.272 126.146 281.984 126.418 282.608C126.706 283.216 127.122 283.688 127.666 284.024C128.226 284.36 128.866 284.528 129.586 284.528C130.306 284.528 130.914 284.376 131.41 284.072C131.922 283.768 132.322 283.36 132.61 282.848L135.154 284.096C134.898 284.72 134.498 285.272 133.954 285.752C133.41 286.232 132.762 286.608 132.01 286.88C131.274 287.152 130.458 287.288 129.562 287.288ZM143.034 287.288C141.642 287.288 140.426 286.96 139.386 286.304C138.362 285.632 137.658 284.728 137.274 283.592L139.626 282.464C139.962 283.2 140.426 283.776 141.018 284.192C141.626 284.608 142.298 284.816 143.034 284.816C143.61 284.816 144.066 284.688 144.402 284.432C144.738 284.176 144.906 283.84 144.906 283.424C144.906 283.168 144.834 282.96 144.69 282.8C144.562 282.624 144.378 282.48 144.138 282.368C143.914 282.24 143.666 282.136 143.394 282.056L141.258 281.456C140.154 281.136 139.314 280.648 138.738 279.992C138.178 279.336 137.898 278.56 137.898 277.664C137.898 276.864 138.098 276.168 138.498 275.576C138.914 274.968 139.482 274.496 140.202 274.16C140.938 273.824 141.778 273.656 142.722 273.656C143.954 273.656 145.042 273.952 145.986 274.544C146.93 275.136 147.602 275.968 148.002 277.04L145.602 278.168C145.378 277.576 145.002 277.104 144.474 276.752C143.946 276.4 143.354 276.224 142.698 276.224C142.17 276.224 141.754 276.344 141.45 276.584C141.146 276.824 140.994 277.136 140.994 277.52C140.994 277.76 141.058 277.968 141.186 278.144C141.314 278.32 141.49 278.464 141.714 278.576C141.954 278.688 142.226 278.792 142.53 278.888L144.618 279.512C145.69 279.832 146.514 280.312 147.09 280.952C147.682 281.592 147.978 282.376 147.978 283.304C147.978 284.088 147.77 284.784 147.354 285.392C146.938 285.984 146.362 286.448 145.626 286.784C144.89 287.12 144.026 287.288 143.034 287.288ZM151.906 287V276.752H149.602V273.944H151.906V273.512C151.906 272.52 152.106 271.68 152.506 270.992C152.922 270.288 153.498 269.752 154.234 269.384C154.97 269.016 155.842 268.832 156.85 268.832C157.042 268.832 157.25 268.848 157.474 268.88C157.714 268.896 157.914 268.92 158.074 268.952V271.664C157.914 271.632 157.762 271.616 157.618 271.616C157.49 271.6 157.37 271.592 157.258 271.592C156.554 271.592 156.01 271.752 155.626 272.072C155.242 272.376 155.05 272.856 155.05 273.512V273.944H157.954V276.752H155.05V287H151.906ZM164.8 287.288C163.792 287.288 162.912 287.064 162.16 286.616C161.424 286.168 160.856 285.544 160.456 284.744C160.072 283.944 159.88 283.008 159.88 281.936V273.944H163.024V281.672C163.024 282.216 163.128 282.696 163.336 283.112C163.56 283.512 163.872 283.832 164.272 284.072C164.688 284.296 165.152 284.408 165.664 284.408C166.176 284.408 166.632 284.296 167.032 284.072C167.432 283.832 167.744 283.504 167.968 283.088C168.192 282.672 168.304 282.176 168.304 281.6V273.944H171.448V287H168.472V284.432L168.736 284.888C168.432 285.688 167.928 286.288 167.224 286.688C166.536 287.088 165.728 287.288 164.8 287.288ZM174.37 287V268.832H177.514V287H174.37ZM180.417 287V268.832H183.561V287H180.417ZM188.048 292.304C187.696 292.304 187.352 292.272 187.016 292.208C186.68 292.16 186.376 292.072 186.104 291.944V289.304C186.312 289.352 186.56 289.4 186.848 289.448C187.152 289.496 187.432 289.52 187.688 289.52C188.408 289.52 188.928 289.352 189.248 289.016C189.584 288.68 189.88 288.24 190.136 287.696L191 285.68L190.952 288.32L185.264 273.944H188.648L192.632 284.552H191.432L195.392 273.944H198.8L193.112 288.32C192.776 289.168 192.368 289.888 191.888 290.48C191.408 291.072 190.848 291.52 190.208 291.824C189.584 292.144 188.864 292.304 188.048 292.304Z" fill="#474F5A"/>
<defs>
<linearGradient id="paint0_linear_0_1126" x1="184.794" y1="97.2308" x2="182.485" y2="134.74" gradientUnits="userSpaceOnUse">
<stop stop-color="#47BFDF"/>
<stop offset="1" stop-color="#4A91FF"/>
</linearGradient>
</defs>
</svg>
