<svg width="90" height="90" viewBox="0 0 90 90" fill="none" xmlns="http://www.w3.org/2000/svg">
<path fill-rule="evenodd" clip-rule="evenodd" d="M57.3706 34.4206C57.3706 33.6243 58.0141 32.9788 58.8079 32.9788C62.4065 32.9788 65.3175 35.9121 65.3175 39.5227C65.3175 43.1333 62.4065 46.0666 58.8079 46.0666H38.1207C37.327 46.0666 36.6835 45.4211 36.6835 44.6247C36.6835 43.8284 37.327 43.1829 38.1207 43.1829H58.8079C60.812 43.1829 62.443 41.5477 62.443 39.5227C62.443 37.4977 60.812 35.8625 58.8079 35.8625C58.0141 35.8625 57.3706 35.217 57.3706 34.4206ZM26.6229 51.0578C26.6229 50.2614 27.2664 49.6159 28.0602 49.6159L56.3624 49.6159C57.1562 49.6159 57.7997 50.2614 57.7997 51.0578C57.7997 51.8541 57.1562 52.4996 56.3624 52.4996L28.0602 52.4996C27.2664 52.4996 26.6229 51.8541 26.6229 51.0578ZM59.5686 51.0578C59.5686 50.2614 60.212 49.6159 61.0058 49.6159H67.1969C67.9907 49.6159 68.6341 50.2614 68.6341 51.0578C68.6341 51.8541 67.9907 52.4996 67.1969 52.4996H61.0058C60.212 52.4996 59.5686 51.8541 59.5686 51.0578ZM28.834 57.2689C28.834 56.4726 29.4775 55.8271 30.2713 55.8271H36.4624C37.2562 55.8271 37.8996 56.4726 37.8996 57.2689C37.8996 58.0653 37.2562 58.7108 36.4624 58.7108H30.2713C29.4775 58.7108 28.834 58.0653 28.834 57.2689ZM39.8896 57.2689C39.8896 56.4726 40.5331 55.8271 41.3268 55.8271H63.6777C67.2748 55.8271 70.1819 58.7619 70.1819 62.371C70.1819 65.9801 67.2748 68.9149 63.6777 68.9149C62.8839 68.9149 62.2404 68.2694 62.2404 67.473C62.2404 66.6767 62.8839 66.0312 63.6777 66.0312C65.6774 66.0312 67.3075 64.3974 67.3075 62.371C67.3075 60.3446 65.6774 58.7108 63.6777 58.7108H41.3268C40.5331 58.7108 39.8896 58.0653 39.8896 57.2689Z" fill="white"/>
<rect width="2.72185" height="7.41878" rx="1.36092" transform="matrix(0.967314 0.253582 -0.264149 0.964482 20.9597 31.6671)" fill="white"/>
<rect width="2.72185" height="7.41878" rx="1.36092" transform="matrix(0.967314 0.253582 -0.264149 0.964482 29.7922 31.6671)" fill="white"/>
<rect width="2.72185" height="7.41878" rx="1.36092" transform="matrix(0.967314 0.253582 -0.264149 0.964482 38.6249 31.6671)" fill="white"/>
<rect width="2.72185" height="7.41878" rx="1.36092" transform="matrix(0.967314 0.253582 -0.264149 0.964482 47.4575 31.6671)" fill="white"/>
<rect width="2.72185" height="7.41878" rx="1.36092" transform="matrix(0.967314 0.253582 -0.264149 0.964482 25.8055 21)" fill="white"/>
<rect width="2.72185" height="7.41878" rx="1.36092" transform="matrix(0.967314 0.253582 -0.264149 0.964482 34.6381 21)" fill="white"/>
<rect width="2.72185" height="7.41878" rx="1.36092" transform="matrix(0.967314 0.253582 -0.264149 0.964482 43.4707 21)" fill="white"/>
<rect width="2.72185" height="7.41878" rx="1.36092" transform="matrix(0.967314 0.253582 -0.264149 0.964482 52.3033 21)" fill="white"/>
</svg>
